G04 #@! TF.GenerationSoftware,KiCad,Pcbnew,10.0.3*
G04 #@! TF.CreationDate,2026-07-25T20:56:45-04:00*
G04 #@! TF.ProjectId,2057-ICE40HX4K-TQ144-breakout,32303537-2d49-4434-9534-304858344b2d,3.0*
G04 #@! TF.SameCoordinates,Original*
G04 #@! TF.FileFunction,Soldermask,Bot*
G04 #@! TF.FilePolarity,Negative*
%FSLAX46Y46*%
G04 Gerber Fmt 4.6, Leading zero omitted, Abs format (unit mm)*
G04 Created by KiCad (PCBNEW 10.0.3) date 2026-07-25 20:56:45*
%MOMM*%
%LPD*%
G01*
G04 APERTURE LIST*
%ADD10R,1.700000X1.700000*%
%ADD11O,1.700000X1.700000*%
%ADD12R,2.200000X2.200000*%
%ADD13C,2.200000*%
%ADD14C,0.650000*%
%ADD15O,1.000000X2.100000*%
%ADD16O,1.000000X1.600000*%
%ADD17R,1.750000X0.700000*%
%ADD18R,1.000000X1.950000*%
%ADD19R,1.550000X1.000000*%
%ADD20R,1.500000X1.300000*%
%ADD21R,1.500000X1.600000*%
%ADD22R,1.500000X1.800000*%
%ADD23R,1.400000X1.300000*%
G04 APERTURE END LIST*
D10*
X45720000Y-53340000D03*
D11*
X48260000Y-53340000D03*
X45720000Y-55880000D03*
X48260000Y-55880000D03*
X45720000Y-58420000D03*
X48260000Y-58420000D03*
X45720000Y-60960000D03*
X48260000Y-60960000D03*
X45720000Y-63500000D03*
X48260000Y-63500000D03*
X45720000Y-66040000D03*
X48260000Y-66040000D03*
X45720000Y-68580000D03*
X48260000Y-68580000D03*
X45720000Y-71120000D03*
X48260000Y-71120000D03*
X45720000Y-73660000D03*
X48260000Y-73660000D03*
X45720000Y-76200000D03*
X48260000Y-76200000D03*
X45720000Y-78740000D03*
X48260000Y-78740000D03*
X45720000Y-81280000D03*
X48260000Y-81280000D03*
X45720000Y-83820000D03*
X48260000Y-83820000D03*
X45720000Y-86360000D03*
X48260000Y-86360000D03*
X45720000Y-88900000D03*
X48260000Y-88900000D03*
X45720000Y-91440000D03*
X48260000Y-91440000D03*
X45720000Y-93980000D03*
X48260000Y-93980000D03*
X45720000Y-96520000D03*
X48260000Y-96520000D03*
X45720000Y-99060000D03*
X48260000Y-99060000D03*
X45720000Y-101600000D03*
X48260000Y-101600000D03*
D10*
X55880000Y-44450000D03*
D11*
X55880000Y-41910000D03*
X58420000Y-44450000D03*
X58420000Y-41910000D03*
X60960000Y-44450000D03*
X60960000Y-41910000D03*
X63500000Y-44450000D03*
X63500000Y-41910000D03*
X66040000Y-44450000D03*
X66040000Y-41910000D03*
X68580000Y-44450000D03*
X68580000Y-41910000D03*
X71120000Y-44450000D03*
X71120000Y-41910000D03*
X73660000Y-44450000D03*
X73660000Y-41910000D03*
X76200000Y-44450000D03*
X76200000Y-41910000D03*
X78740000Y-44450000D03*
X78740000Y-41910000D03*
X81280000Y-44450000D03*
X81280000Y-41910000D03*
X83820000Y-44450000D03*
X83820000Y-41910000D03*
X86360000Y-44450000D03*
X86360000Y-41910000D03*
X88900000Y-44450000D03*
X88900000Y-41910000D03*
X91440000Y-44450000D03*
X91440000Y-41910000D03*
X93980000Y-44450000D03*
X93980000Y-41910000D03*
X96520000Y-44450000D03*
X96520000Y-41910000D03*
X99060000Y-44450000D03*
X99060000Y-41910000D03*
X101600000Y-44450000D03*
X101600000Y-41910000D03*
X104140000Y-44450000D03*
X104140000Y-41910000D03*
X106680000Y-44450000D03*
X106680000Y-41910000D03*
X109220000Y-44450000D03*
X109220000Y-41910000D03*
X111760000Y-44450000D03*
X111760000Y-41910000D03*
X114300000Y-44450000D03*
X114300000Y-41910000D03*
X116840000Y-44450000D03*
X116840000Y-41910000D03*
X119380000Y-44450000D03*
X119380000Y-41910000D03*
X121920000Y-44450000D03*
X121920000Y-41910000D03*
X124460000Y-44450000D03*
X124460000Y-41910000D03*
X127000000Y-44450000D03*
X127000000Y-41910000D03*
X129540000Y-44450000D03*
X129540000Y-41910000D03*
D10*
X55880000Y-100330000D03*
D11*
X55880000Y-97790000D03*
X58420000Y-100330000D03*
X58420000Y-97790000D03*
X60960000Y-100330000D03*
X60960000Y-97790000D03*
X63500000Y-100330000D03*
X63500000Y-97790000D03*
X66040000Y-100330000D03*
X66040000Y-97790000D03*
X68580000Y-100330000D03*
X68580000Y-97790000D03*
X71120000Y-100330000D03*
X71120000Y-97790000D03*
X73660000Y-100330000D03*
X73660000Y-97790000D03*
X76200000Y-100330000D03*
X76200000Y-97790000D03*
X78740000Y-100330000D03*
X78740000Y-97790000D03*
X81280000Y-100330000D03*
X81280000Y-97790000D03*
X83820000Y-100330000D03*
X83820000Y-97790000D03*
X86360000Y-100330000D03*
X86360000Y-97790000D03*
X88900000Y-100330000D03*
X88900000Y-97790000D03*
X91440000Y-100330000D03*
X91440000Y-97790000D03*
X93980000Y-100330000D03*
X93980000Y-97790000D03*
X96520000Y-100330000D03*
X96520000Y-97790000D03*
X99060000Y-100330000D03*
X99060000Y-97790000D03*
X101600000Y-100330000D03*
X101600000Y-97790000D03*
X104140000Y-100330000D03*
X104140000Y-97790000D03*
X106680000Y-100330000D03*
X106680000Y-97790000D03*
X109220000Y-100330000D03*
X109220000Y-97790000D03*
X111760000Y-100330000D03*
X111760000Y-97790000D03*
X114300000Y-100330000D03*
X114300000Y-97790000D03*
X116840000Y-100330000D03*
X116840000Y-97790000D03*
X119380000Y-100330000D03*
X119380000Y-97790000D03*
X121920000Y-100330000D03*
X121920000Y-97790000D03*
X124460000Y-100330000D03*
X124460000Y-97790000D03*
X127000000Y-100330000D03*
X127000000Y-97790000D03*
X129540000Y-100330000D03*
X129540000Y-97790000D03*
D10*
X35560000Y-53340000D03*
D11*
X38100000Y-53340000D03*
X35560000Y-55880000D03*
X38100000Y-55880000D03*
X35560000Y-58420000D03*
X38100000Y-58420000D03*
X35560000Y-60960000D03*
X38100000Y-60960000D03*
X35560000Y-63500000D03*
X38100000Y-63500000D03*
X35560000Y-66040000D03*
X38100000Y-66040000D03*
X35560000Y-68580000D03*
X38100000Y-68580000D03*
X35560000Y-71120000D03*
X38100000Y-71120000D03*
X35560000Y-73660000D03*
X38100000Y-73660000D03*
X35560000Y-76200000D03*
X38100000Y-76200000D03*
X35560000Y-78740000D03*
X38100000Y-78740000D03*
X35560000Y-81280000D03*
X38100000Y-81280000D03*
X35560000Y-83820000D03*
X38100000Y-83820000D03*
X35560000Y-86360000D03*
X38100000Y-86360000D03*
X35560000Y-88900000D03*
X38100000Y-88900000D03*
X35560000Y-91440000D03*
X38100000Y-91440000D03*
X35560000Y-93980000D03*
X38100000Y-93980000D03*
X35560000Y-96520000D03*
X38100000Y-96520000D03*
X35560000Y-99060000D03*
X38100000Y-99060000D03*
X35560000Y-101600000D03*
X38100000Y-101600000D03*
D10*
X54610000Y-52578000D03*
D11*
X57150000Y-52578000D03*
D12*
X121861000Y-62092000D03*
D13*
X128361000Y-62092000D03*
X121861000Y-66592000D03*
X128361000Y-66592000D03*
D12*
X121861000Y-70474000D03*
D13*
X128361000Y-70474000D03*
X121861000Y-74974000D03*
X128361000Y-74974000D03*
D10*
X64770000Y-74930000D03*
D11*
X67310000Y-74930000D03*
X64770000Y-77470000D03*
X67310000Y-77470000D03*
X64770000Y-80010000D03*
X67310000Y-80010000D03*
X64770000Y-82550000D03*
X67310000Y-82550000D03*
X64770000Y-85090000D03*
X67310000Y-85090000D03*
X64770000Y-87630000D03*
X67310000Y-87630000D03*
X64770000Y-90170000D03*
X67310000Y-90170000D03*
X64770000Y-92710000D03*
X67310000Y-92710000D03*
D14*
X50388000Y-44340000D03*
X44608000Y-44340000D03*
D15*
X51818000Y-44870000D03*
D16*
X51818000Y-40690000D03*
D15*
X43178000Y-44870000D03*
D16*
X43178000Y-40690000D03*
D17*
X129620000Y-56615000D03*
X129620000Y-55515000D03*
X129620000Y-54415000D03*
X129620000Y-53315000D03*
X129620000Y-52215000D03*
X129620000Y-51115000D03*
X129620000Y-50015000D03*
X129620000Y-48915000D03*
D18*
X120395000Y-47790000D03*
D19*
X118820000Y-59015000D03*
D20*
X121895000Y-47465000D03*
D21*
X129495000Y-47565000D03*
D22*
X129495000Y-59215000D03*
D23*
X121245000Y-59415000D03*
M02*
