G04 #@! TF.GenerationSoftware,KiCad,Pcbnew,10.0.3*
G04 #@! TF.CreationDate,2026-07-25T20:56:45-04:00*
G04 #@! TF.ProjectId,2057-ICE40HX4K-TQ144-breakout,32303537-2d49-4434-9534-304858344b2d,3.0*
G04 #@! TF.SameCoordinates,Original*
G04 #@! TF.FileFunction,Legend,Bot*
G04 #@! TF.FilePolarity,Positive*
%FSLAX46Y46*%
G04 Gerber Fmt 4.6, Leading zero omitted, Abs format (unit mm)*
G04 Created by KiCad (PCBNEW 10.0.3) date 2026-07-25 20:56:45*
%MOMM*%
%LPD*%
G01*
G04 APERTURE LIST*
%ADD10C,0.150000*%
%ADD11C,0.120000*%
%ADD12R,1.700000X1.700000*%
%ADD13O,1.700000X1.700000*%
%ADD14R,2.200000X2.200000*%
%ADD15C,2.200000*%
%ADD16C,0.650000*%
%ADD17O,1.000000X2.100000*%
%ADD18O,1.000000X1.600000*%
%ADD19R,1.750000X0.700000*%
%ADD20R,1.000000X1.950000*%
%ADD21R,1.550000X1.000000*%
%ADD22R,1.500000X1.300000*%
%ADD23R,1.500000X1.600000*%
%ADD24R,1.500000X1.800000*%
%ADD25R,1.400000X1.300000*%
G04 APERTURE END LIST*
D10*
X108311792Y-55064819D02*
X108645125Y-54588628D01*
X108883220Y-55064819D02*
X108883220Y-54064819D01*
X108883220Y-54064819D02*
X108502268Y-54064819D01*
X108502268Y-54064819D02*
X108407030Y-54112438D01*
X108407030Y-54112438D02*
X108359411Y-54160057D01*
X108359411Y-54160057D02*
X108311792Y-54255295D01*
X108311792Y-54255295D02*
X108311792Y-54398152D01*
X108311792Y-54398152D02*
X108359411Y-54493390D01*
X108359411Y-54493390D02*
X108407030Y-54541009D01*
X108407030Y-54541009D02*
X108502268Y-54588628D01*
X108502268Y-54588628D02*
X108883220Y-54588628D01*
X107502268Y-55017200D02*
X107597506Y-55064819D01*
X107597506Y-55064819D02*
X107787982Y-55064819D01*
X107787982Y-55064819D02*
X107883220Y-55017200D01*
X107883220Y-55017200D02*
X107930839Y-54921961D01*
X107930839Y-54921961D02*
X107930839Y-54541009D01*
X107930839Y-54541009D02*
X107883220Y-54445771D01*
X107883220Y-54445771D02*
X107787982Y-54398152D01*
X107787982Y-54398152D02*
X107597506Y-54398152D01*
X107597506Y-54398152D02*
X107502268Y-54445771D01*
X107502268Y-54445771D02*
X107454649Y-54541009D01*
X107454649Y-54541009D02*
X107454649Y-54636247D01*
X107454649Y-54636247D02*
X107930839Y-54731485D01*
X107121315Y-54398152D02*
X106883220Y-55064819D01*
X106883220Y-55064819D02*
X106645125Y-54398152D01*
X105597505Y-54064819D02*
X104978458Y-54064819D01*
X104978458Y-54064819D02*
X105311791Y-54445771D01*
X105311791Y-54445771D02*
X105168934Y-54445771D01*
X105168934Y-54445771D02*
X105073696Y-54493390D01*
X105073696Y-54493390D02*
X105026077Y-54541009D01*
X105026077Y-54541009D02*
X104978458Y-54636247D01*
X104978458Y-54636247D02*
X104978458Y-54874342D01*
X104978458Y-54874342D02*
X105026077Y-54969580D01*
X105026077Y-54969580D02*
X105073696Y-55017200D01*
X105073696Y-55017200D02*
X105168934Y-55064819D01*
X105168934Y-55064819D02*
X105454648Y-55064819D01*
X105454648Y-55064819D02*
X105549886Y-55017200D01*
X105549886Y-55017200D02*
X105597505Y-54969580D01*
X104549886Y-54969580D02*
X104502267Y-55017200D01*
X104502267Y-55017200D02*
X104549886Y-55064819D01*
X104549886Y-55064819D02*
X104597505Y-55017200D01*
X104597505Y-55017200D02*
X104549886Y-54969580D01*
X104549886Y-54969580D02*
X104549886Y-55064819D01*
X103883220Y-54064819D02*
X103787982Y-54064819D01*
X103787982Y-54064819D02*
X103692744Y-54112438D01*
X103692744Y-54112438D02*
X103645125Y-54160057D01*
X103645125Y-54160057D02*
X103597506Y-54255295D01*
X103597506Y-54255295D02*
X103549887Y-54445771D01*
X103549887Y-54445771D02*
X103549887Y-54683866D01*
X103549887Y-54683866D02*
X103597506Y-54874342D01*
X103597506Y-54874342D02*
X103645125Y-54969580D01*
X103645125Y-54969580D02*
X103692744Y-55017200D01*
X103692744Y-55017200D02*
X103787982Y-55064819D01*
X103787982Y-55064819D02*
X103883220Y-55064819D01*
X103883220Y-55064819D02*
X103978458Y-55017200D01*
X103978458Y-55017200D02*
X104026077Y-54969580D01*
X104026077Y-54969580D02*
X104073696Y-54874342D01*
X104073696Y-54874342D02*
X104121315Y-54683866D01*
X104121315Y-54683866D02*
X104121315Y-54445771D01*
X104121315Y-54445771D02*
X104073696Y-54255295D01*
X104073696Y-54255295D02*
X104026077Y-54160057D01*
X104026077Y-54160057D02*
X103978458Y-54112438D01*
X103978458Y-54112438D02*
X103883220Y-54064819D01*
X113963220Y-49410779D02*
X113963220Y-48410779D01*
X113534649Y-49410779D02*
X113534649Y-48886969D01*
X113534649Y-48886969D02*
X113582268Y-48791731D01*
X113582268Y-48791731D02*
X113677506Y-48744112D01*
X113677506Y-48744112D02*
X113820363Y-48744112D01*
X113820363Y-48744112D02*
X113915601Y-48791731D01*
X113915601Y-48791731D02*
X113963220Y-48839350D01*
X113201315Y-48744112D02*
X112820363Y-48744112D01*
X113058458Y-48410779D02*
X113058458Y-49267921D01*
X113058458Y-49267921D02*
X113010839Y-49363160D01*
X113010839Y-49363160D02*
X112915601Y-49410779D01*
X112915601Y-49410779D02*
X112820363Y-49410779D01*
X112629886Y-48744112D02*
X112248934Y-48744112D01*
X112487029Y-48410779D02*
X112487029Y-49267921D01*
X112487029Y-49267921D02*
X112439410Y-49363160D01*
X112439410Y-49363160D02*
X112344172Y-49410779D01*
X112344172Y-49410779D02*
X112248934Y-49410779D01*
X111915600Y-48744112D02*
X111915600Y-49744112D01*
X111915600Y-48791731D02*
X111820362Y-48744112D01*
X111820362Y-48744112D02*
X111629886Y-48744112D01*
X111629886Y-48744112D02*
X111534648Y-48791731D01*
X111534648Y-48791731D02*
X111487029Y-48839350D01*
X111487029Y-48839350D02*
X111439410Y-48934588D01*
X111439410Y-48934588D02*
X111439410Y-49220302D01*
X111439410Y-49220302D02*
X111487029Y-49315540D01*
X111487029Y-49315540D02*
X111534648Y-49363160D01*
X111534648Y-49363160D02*
X111629886Y-49410779D01*
X111629886Y-49410779D02*
X111820362Y-49410779D01*
X111820362Y-49410779D02*
X111915600Y-49363160D01*
X111058457Y-49363160D02*
X110963219Y-49410779D01*
X110963219Y-49410779D02*
X110772743Y-49410779D01*
X110772743Y-49410779D02*
X110677505Y-49363160D01*
X110677505Y-49363160D02*
X110629886Y-49267921D01*
X110629886Y-49267921D02*
X110629886Y-49220302D01*
X110629886Y-49220302D02*
X110677505Y-49125064D01*
X110677505Y-49125064D02*
X110772743Y-49077445D01*
X110772743Y-49077445D02*
X110915600Y-49077445D01*
X110915600Y-49077445D02*
X111010838Y-49029826D01*
X111010838Y-49029826D02*
X111058457Y-48934588D01*
X111058457Y-48934588D02*
X111058457Y-48886969D01*
X111058457Y-48886969D02*
X111010838Y-48791731D01*
X111010838Y-48791731D02*
X110915600Y-48744112D01*
X110915600Y-48744112D02*
X110772743Y-48744112D01*
X110772743Y-48744112D02*
X110677505Y-48791731D01*
X110201314Y-49315540D02*
X110153695Y-49363160D01*
X110153695Y-49363160D02*
X110201314Y-49410779D01*
X110201314Y-49410779D02*
X110248933Y-49363160D01*
X110248933Y-49363160D02*
X110201314Y-49315540D01*
X110201314Y-49315540D02*
X110201314Y-49410779D01*
X110201314Y-48791731D02*
X110153695Y-48839350D01*
X110153695Y-48839350D02*
X110201314Y-48886969D01*
X110201314Y-48886969D02*
X110248933Y-48839350D01*
X110248933Y-48839350D02*
X110201314Y-48791731D01*
X110201314Y-48791731D02*
X110201314Y-48886969D01*
X109010839Y-48363160D02*
X109867981Y-49648874D01*
X107963220Y-48363160D02*
X108820362Y-49648874D01*
X107201315Y-48744112D02*
X107201315Y-49553636D01*
X107201315Y-49553636D02*
X107248934Y-49648874D01*
X107248934Y-49648874D02*
X107296553Y-49696493D01*
X107296553Y-49696493D02*
X107391791Y-49744112D01*
X107391791Y-49744112D02*
X107534648Y-49744112D01*
X107534648Y-49744112D02*
X107629886Y-49696493D01*
X107201315Y-49363160D02*
X107296553Y-49410779D01*
X107296553Y-49410779D02*
X107487029Y-49410779D01*
X107487029Y-49410779D02*
X107582267Y-49363160D01*
X107582267Y-49363160D02*
X107629886Y-49315540D01*
X107629886Y-49315540D02*
X107677505Y-49220302D01*
X107677505Y-49220302D02*
X107677505Y-48934588D01*
X107677505Y-48934588D02*
X107629886Y-48839350D01*
X107629886Y-48839350D02*
X107582267Y-48791731D01*
X107582267Y-48791731D02*
X107487029Y-48744112D01*
X107487029Y-48744112D02*
X107296553Y-48744112D01*
X107296553Y-48744112D02*
X107201315Y-48791731D01*
X106725124Y-49410779D02*
X106725124Y-48744112D01*
X106725124Y-48410779D02*
X106772743Y-48458398D01*
X106772743Y-48458398D02*
X106725124Y-48506017D01*
X106725124Y-48506017D02*
X106677505Y-48458398D01*
X106677505Y-48458398D02*
X106725124Y-48410779D01*
X106725124Y-48410779D02*
X106725124Y-48506017D01*
X106391791Y-48744112D02*
X106010839Y-48744112D01*
X106248934Y-48410779D02*
X106248934Y-49267921D01*
X106248934Y-49267921D02*
X106201315Y-49363160D01*
X106201315Y-49363160D02*
X106106077Y-49410779D01*
X106106077Y-49410779D02*
X106010839Y-49410779D01*
X105677505Y-49410779D02*
X105677505Y-48410779D01*
X105248934Y-49410779D02*
X105248934Y-48886969D01*
X105248934Y-48886969D02*
X105296553Y-48791731D01*
X105296553Y-48791731D02*
X105391791Y-48744112D01*
X105391791Y-48744112D02*
X105534648Y-48744112D01*
X105534648Y-48744112D02*
X105629886Y-48791731D01*
X105629886Y-48791731D02*
X105677505Y-48839350D01*
X104344172Y-48744112D02*
X104344172Y-49410779D01*
X104772743Y-48744112D02*
X104772743Y-49267921D01*
X104772743Y-49267921D02*
X104725124Y-49363160D01*
X104725124Y-49363160D02*
X104629886Y-49410779D01*
X104629886Y-49410779D02*
X104487029Y-49410779D01*
X104487029Y-49410779D02*
X104391791Y-49363160D01*
X104391791Y-49363160D02*
X104344172Y-49315540D01*
X103867981Y-49410779D02*
X103867981Y-48410779D01*
X103867981Y-48791731D02*
X103772743Y-48744112D01*
X103772743Y-48744112D02*
X103582267Y-48744112D01*
X103582267Y-48744112D02*
X103487029Y-48791731D01*
X103487029Y-48791731D02*
X103439410Y-48839350D01*
X103439410Y-48839350D02*
X103391791Y-48934588D01*
X103391791Y-48934588D02*
X103391791Y-49220302D01*
X103391791Y-49220302D02*
X103439410Y-49315540D01*
X103439410Y-49315540D02*
X103487029Y-49363160D01*
X103487029Y-49363160D02*
X103582267Y-49410779D01*
X103582267Y-49410779D02*
X103772743Y-49410779D01*
X103772743Y-49410779D02*
X103867981Y-49363160D01*
X102963219Y-49315540D02*
X102915600Y-49363160D01*
X102915600Y-49363160D02*
X102963219Y-49410779D01*
X102963219Y-49410779D02*
X103010838Y-49363160D01*
X103010838Y-49363160D02*
X102963219Y-49315540D01*
X102963219Y-49315540D02*
X102963219Y-49410779D01*
X102058458Y-49363160D02*
X102153696Y-49410779D01*
X102153696Y-49410779D02*
X102344172Y-49410779D01*
X102344172Y-49410779D02*
X102439410Y-49363160D01*
X102439410Y-49363160D02*
X102487029Y-49315540D01*
X102487029Y-49315540D02*
X102534648Y-49220302D01*
X102534648Y-49220302D02*
X102534648Y-48934588D01*
X102534648Y-48934588D02*
X102487029Y-48839350D01*
X102487029Y-48839350D02*
X102439410Y-48791731D01*
X102439410Y-48791731D02*
X102344172Y-48744112D01*
X102344172Y-48744112D02*
X102153696Y-48744112D01*
X102153696Y-48744112D02*
X102058458Y-48791731D01*
X101487029Y-49410779D02*
X101582267Y-49363160D01*
X101582267Y-49363160D02*
X101629886Y-49315540D01*
X101629886Y-49315540D02*
X101677505Y-49220302D01*
X101677505Y-49220302D02*
X101677505Y-48934588D01*
X101677505Y-48934588D02*
X101629886Y-48839350D01*
X101629886Y-48839350D02*
X101582267Y-48791731D01*
X101582267Y-48791731D02*
X101487029Y-48744112D01*
X101487029Y-48744112D02*
X101344172Y-48744112D01*
X101344172Y-48744112D02*
X101248934Y-48791731D01*
X101248934Y-48791731D02*
X101201315Y-48839350D01*
X101201315Y-48839350D02*
X101153696Y-48934588D01*
X101153696Y-48934588D02*
X101153696Y-49220302D01*
X101153696Y-49220302D02*
X101201315Y-49315540D01*
X101201315Y-49315540D02*
X101248934Y-49363160D01*
X101248934Y-49363160D02*
X101344172Y-49410779D01*
X101344172Y-49410779D02*
X101487029Y-49410779D01*
X100725124Y-49410779D02*
X100725124Y-48744112D01*
X100725124Y-48839350D02*
X100677505Y-48791731D01*
X100677505Y-48791731D02*
X100582267Y-48744112D01*
X100582267Y-48744112D02*
X100439410Y-48744112D01*
X100439410Y-48744112D02*
X100344172Y-48791731D01*
X100344172Y-48791731D02*
X100296553Y-48886969D01*
X100296553Y-48886969D02*
X100296553Y-49410779D01*
X100296553Y-48886969D02*
X100248934Y-48791731D01*
X100248934Y-48791731D02*
X100153696Y-48744112D01*
X100153696Y-48744112D02*
X100010839Y-48744112D01*
X100010839Y-48744112D02*
X99915600Y-48791731D01*
X99915600Y-48791731D02*
X99867981Y-48886969D01*
X99867981Y-48886969D02*
X99867981Y-49410779D01*
X98677506Y-48363160D02*
X99534648Y-49648874D01*
X98344172Y-48744112D02*
X98344172Y-49601255D01*
X98344172Y-49601255D02*
X98391791Y-49696493D01*
X98391791Y-49696493D02*
X98487029Y-49744112D01*
X98487029Y-49744112D02*
X98534648Y-49744112D01*
X98344172Y-48410779D02*
X98391791Y-48458398D01*
X98391791Y-48458398D02*
X98344172Y-48506017D01*
X98344172Y-48506017D02*
X98296553Y-48458398D01*
X98296553Y-48458398D02*
X98344172Y-48410779D01*
X98344172Y-48410779D02*
X98344172Y-48506017D01*
X97725125Y-49410779D02*
X97820363Y-49363160D01*
X97820363Y-49363160D02*
X97867982Y-49315540D01*
X97867982Y-49315540D02*
X97915601Y-49220302D01*
X97915601Y-49220302D02*
X97915601Y-48934588D01*
X97915601Y-48934588D02*
X97867982Y-48839350D01*
X97867982Y-48839350D02*
X97820363Y-48791731D01*
X97820363Y-48791731D02*
X97725125Y-48744112D01*
X97725125Y-48744112D02*
X97582268Y-48744112D01*
X97582268Y-48744112D02*
X97487030Y-48791731D01*
X97487030Y-48791731D02*
X97439411Y-48839350D01*
X97439411Y-48839350D02*
X97391792Y-48934588D01*
X97391792Y-48934588D02*
X97391792Y-49220302D01*
X97391792Y-49220302D02*
X97439411Y-49315540D01*
X97439411Y-49315540D02*
X97487030Y-49363160D01*
X97487030Y-49363160D02*
X97582268Y-49410779D01*
X97582268Y-49410779D02*
X97725125Y-49410779D01*
X96963220Y-49410779D02*
X96963220Y-48410779D01*
X96534649Y-49410779D02*
X96534649Y-48886969D01*
X96534649Y-48886969D02*
X96582268Y-48791731D01*
X96582268Y-48791731D02*
X96677506Y-48744112D01*
X96677506Y-48744112D02*
X96820363Y-48744112D01*
X96820363Y-48744112D02*
X96915601Y-48791731D01*
X96915601Y-48791731D02*
X96963220Y-48839350D01*
X96058458Y-48744112D02*
X96058458Y-49410779D01*
X96058458Y-48839350D02*
X96010839Y-48791731D01*
X96010839Y-48791731D02*
X95915601Y-48744112D01*
X95915601Y-48744112D02*
X95772744Y-48744112D01*
X95772744Y-48744112D02*
X95677506Y-48791731D01*
X95677506Y-48791731D02*
X95629887Y-48886969D01*
X95629887Y-48886969D02*
X95629887Y-49410779D01*
X95248934Y-48744112D02*
X95058458Y-49410779D01*
X95058458Y-49410779D02*
X94867982Y-48934588D01*
X94867982Y-48934588D02*
X94677506Y-49410779D01*
X94677506Y-49410779D02*
X94487030Y-48744112D01*
X94106077Y-49410779D02*
X94106077Y-48744112D01*
X94106077Y-48410779D02*
X94153696Y-48458398D01*
X94153696Y-48458398D02*
X94106077Y-48506017D01*
X94106077Y-48506017D02*
X94058458Y-48458398D01*
X94058458Y-48458398D02*
X94106077Y-48410779D01*
X94106077Y-48410779D02*
X94106077Y-48506017D01*
X93629887Y-48744112D02*
X93629887Y-49410779D01*
X93629887Y-48839350D02*
X93582268Y-48791731D01*
X93582268Y-48791731D02*
X93487030Y-48744112D01*
X93487030Y-48744112D02*
X93344173Y-48744112D01*
X93344173Y-48744112D02*
X93248935Y-48791731D01*
X93248935Y-48791731D02*
X93201316Y-48886969D01*
X93201316Y-48886969D02*
X93201316Y-49410779D01*
X92296554Y-49410779D02*
X92296554Y-48886969D01*
X92296554Y-48886969D02*
X92344173Y-48791731D01*
X92344173Y-48791731D02*
X92439411Y-48744112D01*
X92439411Y-48744112D02*
X92629887Y-48744112D01*
X92629887Y-48744112D02*
X92725125Y-48791731D01*
X92296554Y-49363160D02*
X92391792Y-49410779D01*
X92391792Y-49410779D02*
X92629887Y-49410779D01*
X92629887Y-49410779D02*
X92725125Y-49363160D01*
X92725125Y-49363160D02*
X92772744Y-49267921D01*
X92772744Y-49267921D02*
X92772744Y-49172683D01*
X92772744Y-49172683D02*
X92725125Y-49077445D01*
X92725125Y-49077445D02*
X92629887Y-49029826D01*
X92629887Y-49029826D02*
X92391792Y-49029826D01*
X92391792Y-49029826D02*
X92296554Y-48982207D01*
X91820363Y-48744112D02*
X91820363Y-49410779D01*
X91820363Y-48839350D02*
X91772744Y-48791731D01*
X91772744Y-48791731D02*
X91677506Y-48744112D01*
X91677506Y-48744112D02*
X91534649Y-48744112D01*
X91534649Y-48744112D02*
X91439411Y-48791731D01*
X91439411Y-48791731D02*
X91391792Y-48886969D01*
X91391792Y-48886969D02*
X91391792Y-49410779D01*
X90963220Y-49363160D02*
X90867982Y-49410779D01*
X90867982Y-49410779D02*
X90677506Y-49410779D01*
X90677506Y-49410779D02*
X90582268Y-49363160D01*
X90582268Y-49363160D02*
X90534649Y-49267921D01*
X90534649Y-49267921D02*
X90534649Y-49220302D01*
X90534649Y-49220302D02*
X90582268Y-49125064D01*
X90582268Y-49125064D02*
X90677506Y-49077445D01*
X90677506Y-49077445D02*
X90820363Y-49077445D01*
X90820363Y-49077445D02*
X90915601Y-49029826D01*
X90915601Y-49029826D02*
X90963220Y-48934588D01*
X90963220Y-48934588D02*
X90963220Y-48886969D01*
X90963220Y-48886969D02*
X90915601Y-48791731D01*
X90915601Y-48791731D02*
X90820363Y-48744112D01*
X90820363Y-48744112D02*
X90677506Y-48744112D01*
X90677506Y-48744112D02*
X90582268Y-48791731D01*
X89391792Y-48363160D02*
X90248934Y-49648874D01*
X89106077Y-48506017D02*
X89058458Y-48458398D01*
X89058458Y-48458398D02*
X88963220Y-48410779D01*
X88963220Y-48410779D02*
X88725125Y-48410779D01*
X88725125Y-48410779D02*
X88629887Y-48458398D01*
X88629887Y-48458398D02*
X88582268Y-48506017D01*
X88582268Y-48506017D02*
X88534649Y-48601255D01*
X88534649Y-48601255D02*
X88534649Y-48696493D01*
X88534649Y-48696493D02*
X88582268Y-48839350D01*
X88582268Y-48839350D02*
X89153696Y-49410779D01*
X89153696Y-49410779D02*
X88534649Y-49410779D01*
X87915601Y-48410779D02*
X87820363Y-48410779D01*
X87820363Y-48410779D02*
X87725125Y-48458398D01*
X87725125Y-48458398D02*
X87677506Y-48506017D01*
X87677506Y-48506017D02*
X87629887Y-48601255D01*
X87629887Y-48601255D02*
X87582268Y-48791731D01*
X87582268Y-48791731D02*
X87582268Y-49029826D01*
X87582268Y-49029826D02*
X87629887Y-49220302D01*
X87629887Y-49220302D02*
X87677506Y-49315540D01*
X87677506Y-49315540D02*
X87725125Y-49363160D01*
X87725125Y-49363160D02*
X87820363Y-49410779D01*
X87820363Y-49410779D02*
X87915601Y-49410779D01*
X87915601Y-49410779D02*
X88010839Y-49363160D01*
X88010839Y-49363160D02*
X88058458Y-49315540D01*
X88058458Y-49315540D02*
X88106077Y-49220302D01*
X88106077Y-49220302D02*
X88153696Y-49029826D01*
X88153696Y-49029826D02*
X88153696Y-48791731D01*
X88153696Y-48791731D02*
X88106077Y-48601255D01*
X88106077Y-48601255D02*
X88058458Y-48506017D01*
X88058458Y-48506017D02*
X88010839Y-48458398D01*
X88010839Y-48458398D02*
X87915601Y-48410779D01*
X86677506Y-48410779D02*
X87153696Y-48410779D01*
X87153696Y-48410779D02*
X87201315Y-48886969D01*
X87201315Y-48886969D02*
X87153696Y-48839350D01*
X87153696Y-48839350D02*
X87058458Y-48791731D01*
X87058458Y-48791731D02*
X86820363Y-48791731D01*
X86820363Y-48791731D02*
X86725125Y-48839350D01*
X86725125Y-48839350D02*
X86677506Y-48886969D01*
X86677506Y-48886969D02*
X86629887Y-48982207D01*
X86629887Y-48982207D02*
X86629887Y-49220302D01*
X86629887Y-49220302D02*
X86677506Y-49315540D01*
X86677506Y-49315540D02*
X86725125Y-49363160D01*
X86725125Y-49363160D02*
X86820363Y-49410779D01*
X86820363Y-49410779D02*
X87058458Y-49410779D01*
X87058458Y-49410779D02*
X87153696Y-49363160D01*
X87153696Y-49363160D02*
X87201315Y-49315540D01*
X86296553Y-48410779D02*
X85629887Y-48410779D01*
X85629887Y-48410779D02*
X86058458Y-49410779D01*
X85248934Y-49029826D02*
X84487030Y-49029826D01*
X84010839Y-49410779D02*
X84010839Y-48410779D01*
X82963221Y-49315540D02*
X83010840Y-49363160D01*
X83010840Y-49363160D02*
X83153697Y-49410779D01*
X83153697Y-49410779D02*
X83248935Y-49410779D01*
X83248935Y-49410779D02*
X83391792Y-49363160D01*
X83391792Y-49363160D02*
X83487030Y-49267921D01*
X83487030Y-49267921D02*
X83534649Y-49172683D01*
X83534649Y-49172683D02*
X83582268Y-48982207D01*
X83582268Y-48982207D02*
X83582268Y-48839350D01*
X83582268Y-48839350D02*
X83534649Y-48648874D01*
X83534649Y-48648874D02*
X83487030Y-48553636D01*
X83487030Y-48553636D02*
X83391792Y-48458398D01*
X83391792Y-48458398D02*
X83248935Y-48410779D01*
X83248935Y-48410779D02*
X83153697Y-48410779D01*
X83153697Y-48410779D02*
X83010840Y-48458398D01*
X83010840Y-48458398D02*
X82963221Y-48506017D01*
X82534649Y-48886969D02*
X82201316Y-48886969D01*
X82058459Y-49410779D02*
X82534649Y-49410779D01*
X82534649Y-49410779D02*
X82534649Y-48410779D01*
X82534649Y-48410779D02*
X82058459Y-48410779D01*
X81201316Y-48744112D02*
X81201316Y-49410779D01*
X81439411Y-48363160D02*
X81677506Y-49077445D01*
X81677506Y-49077445D02*
X81058459Y-49077445D01*
X80487030Y-48410779D02*
X80391792Y-48410779D01*
X80391792Y-48410779D02*
X80296554Y-48458398D01*
X80296554Y-48458398D02*
X80248935Y-48506017D01*
X80248935Y-48506017D02*
X80201316Y-48601255D01*
X80201316Y-48601255D02*
X80153697Y-48791731D01*
X80153697Y-48791731D02*
X80153697Y-49029826D01*
X80153697Y-49029826D02*
X80201316Y-49220302D01*
X80201316Y-49220302D02*
X80248935Y-49315540D01*
X80248935Y-49315540D02*
X80296554Y-49363160D01*
X80296554Y-49363160D02*
X80391792Y-49410779D01*
X80391792Y-49410779D02*
X80487030Y-49410779D01*
X80487030Y-49410779D02*
X80582268Y-49363160D01*
X80582268Y-49363160D02*
X80629887Y-49315540D01*
X80629887Y-49315540D02*
X80677506Y-49220302D01*
X80677506Y-49220302D02*
X80725125Y-49029826D01*
X80725125Y-49029826D02*
X80725125Y-48791731D01*
X80725125Y-48791731D02*
X80677506Y-48601255D01*
X80677506Y-48601255D02*
X80629887Y-48506017D01*
X80629887Y-48506017D02*
X80582268Y-48458398D01*
X80582268Y-48458398D02*
X80487030Y-48410779D01*
X79725125Y-49410779D02*
X79725125Y-48410779D01*
X79725125Y-48886969D02*
X79153697Y-48886969D01*
X79153697Y-49410779D02*
X79153697Y-48410779D01*
X78772744Y-48410779D02*
X78106078Y-49410779D01*
X78106078Y-48410779D02*
X78772744Y-49410779D01*
X77296554Y-48744112D02*
X77296554Y-49410779D01*
X77534649Y-48363160D02*
X77772744Y-49077445D01*
X77772744Y-49077445D02*
X77153697Y-49077445D01*
X76772744Y-49410779D02*
X76772744Y-48410779D01*
X76201316Y-49410779D02*
X76629887Y-48839350D01*
X76201316Y-48410779D02*
X76772744Y-48982207D01*
X75772744Y-49029826D02*
X75010840Y-49029826D01*
X74677506Y-48410779D02*
X74106078Y-48410779D01*
X74391792Y-49410779D02*
X74391792Y-48410779D01*
X73106078Y-49506017D02*
X73201316Y-49458398D01*
X73201316Y-49458398D02*
X73296554Y-49363160D01*
X73296554Y-49363160D02*
X73439411Y-49220302D01*
X73439411Y-49220302D02*
X73534649Y-49172683D01*
X73534649Y-49172683D02*
X73629887Y-49172683D01*
X73582268Y-49410779D02*
X73677506Y-49363160D01*
X73677506Y-49363160D02*
X73772744Y-49267921D01*
X73772744Y-49267921D02*
X73820363Y-49077445D01*
X73820363Y-49077445D02*
X73820363Y-48744112D01*
X73820363Y-48744112D02*
X73772744Y-48553636D01*
X73772744Y-48553636D02*
X73677506Y-48458398D01*
X73677506Y-48458398D02*
X73582268Y-48410779D01*
X73582268Y-48410779D02*
X73391792Y-48410779D01*
X73391792Y-48410779D02*
X73296554Y-48458398D01*
X73296554Y-48458398D02*
X73201316Y-48553636D01*
X73201316Y-48553636D02*
X73153697Y-48744112D01*
X73153697Y-48744112D02*
X73153697Y-49077445D01*
X73153697Y-49077445D02*
X73201316Y-49267921D01*
X73201316Y-49267921D02*
X73296554Y-49363160D01*
X73296554Y-49363160D02*
X73391792Y-49410779D01*
X73391792Y-49410779D02*
X73582268Y-49410779D01*
X72201316Y-49410779D02*
X72772744Y-49410779D01*
X72487030Y-49410779D02*
X72487030Y-48410779D01*
X72487030Y-48410779D02*
X72582268Y-48553636D01*
X72582268Y-48553636D02*
X72677506Y-48648874D01*
X72677506Y-48648874D02*
X72772744Y-48696493D01*
X71344173Y-48744112D02*
X71344173Y-49410779D01*
X71582268Y-48363160D02*
X71820363Y-49077445D01*
X71820363Y-49077445D02*
X71201316Y-49077445D01*
X70391792Y-48744112D02*
X70391792Y-49410779D01*
X70629887Y-48363160D02*
X70867982Y-49077445D01*
X70867982Y-49077445D02*
X70248935Y-49077445D01*
X69867982Y-49029826D02*
X69106078Y-49029826D01*
X68629887Y-49410779D02*
X68629887Y-48410779D01*
X68629887Y-48791731D02*
X68534649Y-48744112D01*
X68534649Y-48744112D02*
X68344173Y-48744112D01*
X68344173Y-48744112D02*
X68248935Y-48791731D01*
X68248935Y-48791731D02*
X68201316Y-48839350D01*
X68201316Y-48839350D02*
X68153697Y-48934588D01*
X68153697Y-48934588D02*
X68153697Y-49220302D01*
X68153697Y-49220302D02*
X68201316Y-49315540D01*
X68201316Y-49315540D02*
X68248935Y-49363160D01*
X68248935Y-49363160D02*
X68344173Y-49410779D01*
X68344173Y-49410779D02*
X68534649Y-49410779D01*
X68534649Y-49410779D02*
X68629887Y-49363160D01*
X67725125Y-49410779D02*
X67725125Y-48744112D01*
X67725125Y-48934588D02*
X67677506Y-48839350D01*
X67677506Y-48839350D02*
X67629887Y-48791731D01*
X67629887Y-48791731D02*
X67534649Y-48744112D01*
X67534649Y-48744112D02*
X67439411Y-48744112D01*
X66725125Y-49363160D02*
X66820363Y-49410779D01*
X66820363Y-49410779D02*
X67010839Y-49410779D01*
X67010839Y-49410779D02*
X67106077Y-49363160D01*
X67106077Y-49363160D02*
X67153696Y-49267921D01*
X67153696Y-49267921D02*
X67153696Y-48886969D01*
X67153696Y-48886969D02*
X67106077Y-48791731D01*
X67106077Y-48791731D02*
X67010839Y-48744112D01*
X67010839Y-48744112D02*
X66820363Y-48744112D01*
X66820363Y-48744112D02*
X66725125Y-48791731D01*
X66725125Y-48791731D02*
X66677506Y-48886969D01*
X66677506Y-48886969D02*
X66677506Y-48982207D01*
X66677506Y-48982207D02*
X67153696Y-49077445D01*
X65820363Y-49410779D02*
X65820363Y-48886969D01*
X65820363Y-48886969D02*
X65867982Y-48791731D01*
X65867982Y-48791731D02*
X65963220Y-48744112D01*
X65963220Y-48744112D02*
X66153696Y-48744112D01*
X66153696Y-48744112D02*
X66248934Y-48791731D01*
X65820363Y-49363160D02*
X65915601Y-49410779D01*
X65915601Y-49410779D02*
X66153696Y-49410779D01*
X66153696Y-49410779D02*
X66248934Y-49363160D01*
X66248934Y-49363160D02*
X66296553Y-49267921D01*
X66296553Y-49267921D02*
X66296553Y-49172683D01*
X66296553Y-49172683D02*
X66248934Y-49077445D01*
X66248934Y-49077445D02*
X66153696Y-49029826D01*
X66153696Y-49029826D02*
X65915601Y-49029826D01*
X65915601Y-49029826D02*
X65820363Y-48982207D01*
X65344172Y-49410779D02*
X65344172Y-48410779D01*
X65248934Y-49029826D02*
X64963220Y-49410779D01*
X64963220Y-48744112D02*
X65344172Y-49125064D01*
X64391791Y-49410779D02*
X64487029Y-49363160D01*
X64487029Y-49363160D02*
X64534648Y-49315540D01*
X64534648Y-49315540D02*
X64582267Y-49220302D01*
X64582267Y-49220302D02*
X64582267Y-48934588D01*
X64582267Y-48934588D02*
X64534648Y-48839350D01*
X64534648Y-48839350D02*
X64487029Y-48791731D01*
X64487029Y-48791731D02*
X64391791Y-48744112D01*
X64391791Y-48744112D02*
X64248934Y-48744112D01*
X64248934Y-48744112D02*
X64153696Y-48791731D01*
X64153696Y-48791731D02*
X64106077Y-48839350D01*
X64106077Y-48839350D02*
X64058458Y-48934588D01*
X64058458Y-48934588D02*
X64058458Y-49220302D01*
X64058458Y-49220302D02*
X64106077Y-49315540D01*
X64106077Y-49315540D02*
X64153696Y-49363160D01*
X64153696Y-49363160D02*
X64248934Y-49410779D01*
X64248934Y-49410779D02*
X64391791Y-49410779D01*
X63201315Y-48744112D02*
X63201315Y-49410779D01*
X63629886Y-48744112D02*
X63629886Y-49267921D01*
X63629886Y-49267921D02*
X63582267Y-49363160D01*
X63582267Y-49363160D02*
X63487029Y-49410779D01*
X63487029Y-49410779D02*
X63344172Y-49410779D01*
X63344172Y-49410779D02*
X63248934Y-49363160D01*
X63248934Y-49363160D02*
X63201315Y-49315540D01*
X62867981Y-48744112D02*
X62487029Y-48744112D01*
X62725124Y-48410779D02*
X62725124Y-49267921D01*
X62725124Y-49267921D02*
X62677505Y-49363160D01*
X62677505Y-49363160D02*
X62582267Y-49410779D01*
X62582267Y-49410779D02*
X62487029Y-49410779D01*
X113391792Y-51159580D02*
X113439411Y-51207200D01*
X113439411Y-51207200D02*
X113582268Y-51254819D01*
X113582268Y-51254819D02*
X113677506Y-51254819D01*
X113677506Y-51254819D02*
X113820363Y-51207200D01*
X113820363Y-51207200D02*
X113915601Y-51111961D01*
X113915601Y-51111961D02*
X113963220Y-51016723D01*
X113963220Y-51016723D02*
X114010839Y-50826247D01*
X114010839Y-50826247D02*
X114010839Y-50683390D01*
X114010839Y-50683390D02*
X113963220Y-50492914D01*
X113963220Y-50492914D02*
X113915601Y-50397676D01*
X113915601Y-50397676D02*
X113820363Y-50302438D01*
X113820363Y-50302438D02*
X113677506Y-50254819D01*
X113677506Y-50254819D02*
X113582268Y-50254819D01*
X113582268Y-50254819D02*
X113439411Y-50302438D01*
X113439411Y-50302438D02*
X113391792Y-50350057D01*
X112820363Y-51254819D02*
X112915601Y-51207200D01*
X112915601Y-51207200D02*
X112963220Y-51159580D01*
X112963220Y-51159580D02*
X113010839Y-51064342D01*
X113010839Y-51064342D02*
X113010839Y-50778628D01*
X113010839Y-50778628D02*
X112963220Y-50683390D01*
X112963220Y-50683390D02*
X112915601Y-50635771D01*
X112915601Y-50635771D02*
X112820363Y-50588152D01*
X112820363Y-50588152D02*
X112677506Y-50588152D01*
X112677506Y-50588152D02*
X112582268Y-50635771D01*
X112582268Y-50635771D02*
X112534649Y-50683390D01*
X112534649Y-50683390D02*
X112487030Y-50778628D01*
X112487030Y-50778628D02*
X112487030Y-51064342D01*
X112487030Y-51064342D02*
X112534649Y-51159580D01*
X112534649Y-51159580D02*
X112582268Y-51207200D01*
X112582268Y-51207200D02*
X112677506Y-51254819D01*
X112677506Y-51254819D02*
X112820363Y-51254819D01*
X112058458Y-50588152D02*
X112058458Y-51588152D01*
X112058458Y-50635771D02*
X111963220Y-50588152D01*
X111963220Y-50588152D02*
X111772744Y-50588152D01*
X111772744Y-50588152D02*
X111677506Y-50635771D01*
X111677506Y-50635771D02*
X111629887Y-50683390D01*
X111629887Y-50683390D02*
X111582268Y-50778628D01*
X111582268Y-50778628D02*
X111582268Y-51064342D01*
X111582268Y-51064342D02*
X111629887Y-51159580D01*
X111629887Y-51159580D02*
X111677506Y-51207200D01*
X111677506Y-51207200D02*
X111772744Y-51254819D01*
X111772744Y-51254819D02*
X111963220Y-51254819D01*
X111963220Y-51254819D02*
X112058458Y-51207200D01*
X111248934Y-50588152D02*
X111010839Y-51254819D01*
X110772744Y-50588152D02*
X111010839Y-51254819D01*
X111010839Y-51254819D02*
X111106077Y-51492914D01*
X111106077Y-51492914D02*
X111153696Y-51540533D01*
X111153696Y-51540533D02*
X111248934Y-51588152D01*
X110391791Y-51254819D02*
X110391791Y-50588152D01*
X110391791Y-50778628D02*
X110344172Y-50683390D01*
X110344172Y-50683390D02*
X110296553Y-50635771D01*
X110296553Y-50635771D02*
X110201315Y-50588152D01*
X110201315Y-50588152D02*
X110106077Y-50588152D01*
X109772743Y-51254819D02*
X109772743Y-50588152D01*
X109772743Y-50254819D02*
X109820362Y-50302438D01*
X109820362Y-50302438D02*
X109772743Y-50350057D01*
X109772743Y-50350057D02*
X109725124Y-50302438D01*
X109725124Y-50302438D02*
X109772743Y-50254819D01*
X109772743Y-50254819D02*
X109772743Y-50350057D01*
X108867982Y-50588152D02*
X108867982Y-51397676D01*
X108867982Y-51397676D02*
X108915601Y-51492914D01*
X108915601Y-51492914D02*
X108963220Y-51540533D01*
X108963220Y-51540533D02*
X109058458Y-51588152D01*
X109058458Y-51588152D02*
X109201315Y-51588152D01*
X109201315Y-51588152D02*
X109296553Y-51540533D01*
X108867982Y-51207200D02*
X108963220Y-51254819D01*
X108963220Y-51254819D02*
X109153696Y-51254819D01*
X109153696Y-51254819D02*
X109248934Y-51207200D01*
X109248934Y-51207200D02*
X109296553Y-51159580D01*
X109296553Y-51159580D02*
X109344172Y-51064342D01*
X109344172Y-51064342D02*
X109344172Y-50778628D01*
X109344172Y-50778628D02*
X109296553Y-50683390D01*
X109296553Y-50683390D02*
X109248934Y-50635771D01*
X109248934Y-50635771D02*
X109153696Y-50588152D01*
X109153696Y-50588152D02*
X108963220Y-50588152D01*
X108963220Y-50588152D02*
X108867982Y-50635771D01*
X108391791Y-51254819D02*
X108391791Y-50254819D01*
X107963220Y-51254819D02*
X107963220Y-50731009D01*
X107963220Y-50731009D02*
X108010839Y-50635771D01*
X108010839Y-50635771D02*
X108106077Y-50588152D01*
X108106077Y-50588152D02*
X108248934Y-50588152D01*
X108248934Y-50588152D02*
X108344172Y-50635771D01*
X108344172Y-50635771D02*
X108391791Y-50683390D01*
X107629886Y-50588152D02*
X107248934Y-50588152D01*
X107487029Y-50254819D02*
X107487029Y-51111961D01*
X107487029Y-51111961D02*
X107439410Y-51207200D01*
X107439410Y-51207200D02*
X107344172Y-51254819D01*
X107344172Y-51254819D02*
X107248934Y-51254819D01*
X105344171Y-50492914D02*
X105439410Y-50445295D01*
X105439410Y-50445295D02*
X105629886Y-50445295D01*
X105629886Y-50445295D02*
X105725124Y-50492914D01*
X105725124Y-50492914D02*
X105820362Y-50588152D01*
X105820362Y-50588152D02*
X105867981Y-50683390D01*
X105867981Y-50683390D02*
X105867981Y-50873866D01*
X105867981Y-50873866D02*
X105820362Y-50969104D01*
X105820362Y-50969104D02*
X105725124Y-51064342D01*
X105725124Y-51064342D02*
X105629886Y-51111961D01*
X105629886Y-51111961D02*
X105439410Y-51111961D01*
X105439410Y-51111961D02*
X105344171Y-51064342D01*
X105534648Y-50111961D02*
X105772743Y-50159580D01*
X105772743Y-50159580D02*
X106010838Y-50302438D01*
X106010838Y-50302438D02*
X106153695Y-50540533D01*
X106153695Y-50540533D02*
X106201314Y-50778628D01*
X106201314Y-50778628D02*
X106153695Y-51016723D01*
X106153695Y-51016723D02*
X106010838Y-51254819D01*
X106010838Y-51254819D02*
X105772743Y-51397676D01*
X105772743Y-51397676D02*
X105534648Y-51445295D01*
X105534648Y-51445295D02*
X105296552Y-51397676D01*
X105296552Y-51397676D02*
X105058457Y-51254819D01*
X105058457Y-51254819D02*
X104915600Y-51016723D01*
X104915600Y-51016723D02*
X104867981Y-50778628D01*
X104867981Y-50778628D02*
X104915600Y-50540533D01*
X104915600Y-50540533D02*
X105058457Y-50302438D01*
X105058457Y-50302438D02*
X105296552Y-50159580D01*
X105296552Y-50159580D02*
X105534648Y-50111961D01*
X103725123Y-50350057D02*
X103677504Y-50302438D01*
X103677504Y-50302438D02*
X103582266Y-50254819D01*
X103582266Y-50254819D02*
X103344171Y-50254819D01*
X103344171Y-50254819D02*
X103248933Y-50302438D01*
X103248933Y-50302438D02*
X103201314Y-50350057D01*
X103201314Y-50350057D02*
X103153695Y-50445295D01*
X103153695Y-50445295D02*
X103153695Y-50540533D01*
X103153695Y-50540533D02*
X103201314Y-50683390D01*
X103201314Y-50683390D02*
X103772742Y-51254819D01*
X103772742Y-51254819D02*
X103153695Y-51254819D01*
X102534647Y-50254819D02*
X102439409Y-50254819D01*
X102439409Y-50254819D02*
X102344171Y-50302438D01*
X102344171Y-50302438D02*
X102296552Y-50350057D01*
X102296552Y-50350057D02*
X102248933Y-50445295D01*
X102248933Y-50445295D02*
X102201314Y-50635771D01*
X102201314Y-50635771D02*
X102201314Y-50873866D01*
X102201314Y-50873866D02*
X102248933Y-51064342D01*
X102248933Y-51064342D02*
X102296552Y-51159580D01*
X102296552Y-51159580D02*
X102344171Y-51207200D01*
X102344171Y-51207200D02*
X102439409Y-51254819D01*
X102439409Y-51254819D02*
X102534647Y-51254819D01*
X102534647Y-51254819D02*
X102629885Y-51207200D01*
X102629885Y-51207200D02*
X102677504Y-51159580D01*
X102677504Y-51159580D02*
X102725123Y-51064342D01*
X102725123Y-51064342D02*
X102772742Y-50873866D01*
X102772742Y-50873866D02*
X102772742Y-50635771D01*
X102772742Y-50635771D02*
X102725123Y-50445295D01*
X102725123Y-50445295D02*
X102677504Y-50350057D01*
X102677504Y-50350057D02*
X102629885Y-50302438D01*
X102629885Y-50302438D02*
X102534647Y-50254819D01*
X101248933Y-51254819D02*
X101820361Y-51254819D01*
X101534647Y-51254819D02*
X101534647Y-50254819D01*
X101534647Y-50254819D02*
X101629885Y-50397676D01*
X101629885Y-50397676D02*
X101725123Y-50492914D01*
X101725123Y-50492914D02*
X101820361Y-50540533D01*
X100772742Y-51254819D02*
X100582266Y-51254819D01*
X100582266Y-51254819D02*
X100487028Y-51207200D01*
X100487028Y-51207200D02*
X100439409Y-51159580D01*
X100439409Y-51159580D02*
X100344171Y-51016723D01*
X100344171Y-51016723D02*
X100296552Y-50826247D01*
X100296552Y-50826247D02*
X100296552Y-50445295D01*
X100296552Y-50445295D02*
X100344171Y-50350057D01*
X100344171Y-50350057D02*
X100391790Y-50302438D01*
X100391790Y-50302438D02*
X100487028Y-50254819D01*
X100487028Y-50254819D02*
X100677504Y-50254819D01*
X100677504Y-50254819D02*
X100772742Y-50302438D01*
X100772742Y-50302438D02*
X100820361Y-50350057D01*
X100820361Y-50350057D02*
X100867980Y-50445295D01*
X100867980Y-50445295D02*
X100867980Y-50683390D01*
X100867980Y-50683390D02*
X100820361Y-50778628D01*
X100820361Y-50778628D02*
X100772742Y-50826247D01*
X100772742Y-50826247D02*
X100677504Y-50873866D01*
X100677504Y-50873866D02*
X100487028Y-50873866D01*
X100487028Y-50873866D02*
X100391790Y-50826247D01*
X100391790Y-50826247D02*
X100344171Y-50778628D01*
X100344171Y-50778628D02*
X100296552Y-50683390D01*
X99820361Y-51207200D02*
X99820361Y-51254819D01*
X99820361Y-51254819D02*
X99867980Y-51350057D01*
X99867980Y-51350057D02*
X99915599Y-51397676D01*
X98677504Y-50350057D02*
X98629885Y-50302438D01*
X98629885Y-50302438D02*
X98534647Y-50254819D01*
X98534647Y-50254819D02*
X98296552Y-50254819D01*
X98296552Y-50254819D02*
X98201314Y-50302438D01*
X98201314Y-50302438D02*
X98153695Y-50350057D01*
X98153695Y-50350057D02*
X98106076Y-50445295D01*
X98106076Y-50445295D02*
X98106076Y-50540533D01*
X98106076Y-50540533D02*
X98153695Y-50683390D01*
X98153695Y-50683390D02*
X98725123Y-51254819D01*
X98725123Y-51254819D02*
X98106076Y-51254819D01*
X97487028Y-50254819D02*
X97391790Y-50254819D01*
X97391790Y-50254819D02*
X97296552Y-50302438D01*
X97296552Y-50302438D02*
X97248933Y-50350057D01*
X97248933Y-50350057D02*
X97201314Y-50445295D01*
X97201314Y-50445295D02*
X97153695Y-50635771D01*
X97153695Y-50635771D02*
X97153695Y-50873866D01*
X97153695Y-50873866D02*
X97201314Y-51064342D01*
X97201314Y-51064342D02*
X97248933Y-51159580D01*
X97248933Y-51159580D02*
X97296552Y-51207200D01*
X97296552Y-51207200D02*
X97391790Y-51254819D01*
X97391790Y-51254819D02*
X97487028Y-51254819D01*
X97487028Y-51254819D02*
X97582266Y-51207200D01*
X97582266Y-51207200D02*
X97629885Y-51159580D01*
X97629885Y-51159580D02*
X97677504Y-51064342D01*
X97677504Y-51064342D02*
X97725123Y-50873866D01*
X97725123Y-50873866D02*
X97725123Y-50635771D01*
X97725123Y-50635771D02*
X97677504Y-50445295D01*
X97677504Y-50445295D02*
X97629885Y-50350057D01*
X97629885Y-50350057D02*
X97582266Y-50302438D01*
X97582266Y-50302438D02*
X97487028Y-50254819D01*
X96772742Y-50350057D02*
X96725123Y-50302438D01*
X96725123Y-50302438D02*
X96629885Y-50254819D01*
X96629885Y-50254819D02*
X96391790Y-50254819D01*
X96391790Y-50254819D02*
X96296552Y-50302438D01*
X96296552Y-50302438D02*
X96248933Y-50350057D01*
X96248933Y-50350057D02*
X96201314Y-50445295D01*
X96201314Y-50445295D02*
X96201314Y-50540533D01*
X96201314Y-50540533D02*
X96248933Y-50683390D01*
X96248933Y-50683390D02*
X96820361Y-51254819D01*
X96820361Y-51254819D02*
X96201314Y-51254819D01*
X95582266Y-50254819D02*
X95487028Y-50254819D01*
X95487028Y-50254819D02*
X95391790Y-50302438D01*
X95391790Y-50302438D02*
X95344171Y-50350057D01*
X95344171Y-50350057D02*
X95296552Y-50445295D01*
X95296552Y-50445295D02*
X95248933Y-50635771D01*
X95248933Y-50635771D02*
X95248933Y-50873866D01*
X95248933Y-50873866D02*
X95296552Y-51064342D01*
X95296552Y-51064342D02*
X95344171Y-51159580D01*
X95344171Y-51159580D02*
X95391790Y-51207200D01*
X95391790Y-51207200D02*
X95487028Y-51254819D01*
X95487028Y-51254819D02*
X95582266Y-51254819D01*
X95582266Y-51254819D02*
X95677504Y-51207200D01*
X95677504Y-51207200D02*
X95725123Y-51159580D01*
X95725123Y-51159580D02*
X95772742Y-51064342D01*
X95772742Y-51064342D02*
X95820361Y-50873866D01*
X95820361Y-50873866D02*
X95820361Y-50635771D01*
X95820361Y-50635771D02*
X95772742Y-50445295D01*
X95772742Y-50445295D02*
X95725123Y-50350057D01*
X95725123Y-50350057D02*
X95677504Y-50302438D01*
X95677504Y-50302438D02*
X95582266Y-50254819D01*
X94772742Y-51207200D02*
X94772742Y-51254819D01*
X94772742Y-51254819D02*
X94820361Y-51350057D01*
X94820361Y-51350057D02*
X94867980Y-51397676D01*
X93629885Y-50350057D02*
X93582266Y-50302438D01*
X93582266Y-50302438D02*
X93487028Y-50254819D01*
X93487028Y-50254819D02*
X93248933Y-50254819D01*
X93248933Y-50254819D02*
X93153695Y-50302438D01*
X93153695Y-50302438D02*
X93106076Y-50350057D01*
X93106076Y-50350057D02*
X93058457Y-50445295D01*
X93058457Y-50445295D02*
X93058457Y-50540533D01*
X93058457Y-50540533D02*
X93106076Y-50683390D01*
X93106076Y-50683390D02*
X93677504Y-51254819D01*
X93677504Y-51254819D02*
X93058457Y-51254819D01*
X92439409Y-50254819D02*
X92344171Y-50254819D01*
X92344171Y-50254819D02*
X92248933Y-50302438D01*
X92248933Y-50302438D02*
X92201314Y-50350057D01*
X92201314Y-50350057D02*
X92153695Y-50445295D01*
X92153695Y-50445295D02*
X92106076Y-50635771D01*
X92106076Y-50635771D02*
X92106076Y-50873866D01*
X92106076Y-50873866D02*
X92153695Y-51064342D01*
X92153695Y-51064342D02*
X92201314Y-51159580D01*
X92201314Y-51159580D02*
X92248933Y-51207200D01*
X92248933Y-51207200D02*
X92344171Y-51254819D01*
X92344171Y-51254819D02*
X92439409Y-51254819D01*
X92439409Y-51254819D02*
X92534647Y-51207200D01*
X92534647Y-51207200D02*
X92582266Y-51159580D01*
X92582266Y-51159580D02*
X92629885Y-51064342D01*
X92629885Y-51064342D02*
X92677504Y-50873866D01*
X92677504Y-50873866D02*
X92677504Y-50635771D01*
X92677504Y-50635771D02*
X92629885Y-50445295D01*
X92629885Y-50445295D02*
X92582266Y-50350057D01*
X92582266Y-50350057D02*
X92534647Y-50302438D01*
X92534647Y-50302438D02*
X92439409Y-50254819D01*
X91725123Y-50350057D02*
X91677504Y-50302438D01*
X91677504Y-50302438D02*
X91582266Y-50254819D01*
X91582266Y-50254819D02*
X91344171Y-50254819D01*
X91344171Y-50254819D02*
X91248933Y-50302438D01*
X91248933Y-50302438D02*
X91201314Y-50350057D01*
X91201314Y-50350057D02*
X91153695Y-50445295D01*
X91153695Y-50445295D02*
X91153695Y-50540533D01*
X91153695Y-50540533D02*
X91201314Y-50683390D01*
X91201314Y-50683390D02*
X91772742Y-51254819D01*
X91772742Y-51254819D02*
X91153695Y-51254819D01*
X90820361Y-50254819D02*
X90201314Y-50254819D01*
X90201314Y-50254819D02*
X90534647Y-50635771D01*
X90534647Y-50635771D02*
X90391790Y-50635771D01*
X90391790Y-50635771D02*
X90296552Y-50683390D01*
X90296552Y-50683390D02*
X90248933Y-50731009D01*
X90248933Y-50731009D02*
X90201314Y-50826247D01*
X90201314Y-50826247D02*
X90201314Y-51064342D01*
X90201314Y-51064342D02*
X90248933Y-51159580D01*
X90248933Y-51159580D02*
X90296552Y-51207200D01*
X90296552Y-51207200D02*
X90391790Y-51254819D01*
X90391790Y-51254819D02*
X90677504Y-51254819D01*
X90677504Y-51254819D02*
X90772742Y-51207200D01*
X90772742Y-51207200D02*
X90820361Y-51159580D01*
X88725123Y-50254819D02*
X88725123Y-50969104D01*
X88725123Y-50969104D02*
X88772742Y-51111961D01*
X88772742Y-51111961D02*
X88867980Y-51207200D01*
X88867980Y-51207200D02*
X89010837Y-51254819D01*
X89010837Y-51254819D02*
X89106075Y-51254819D01*
X88106075Y-51254819D02*
X88201313Y-51207200D01*
X88201313Y-51207200D02*
X88248932Y-51159580D01*
X88248932Y-51159580D02*
X88296551Y-51064342D01*
X88296551Y-51064342D02*
X88296551Y-50778628D01*
X88296551Y-50778628D02*
X88248932Y-50683390D01*
X88248932Y-50683390D02*
X88201313Y-50635771D01*
X88201313Y-50635771D02*
X88106075Y-50588152D01*
X88106075Y-50588152D02*
X87963218Y-50588152D01*
X87963218Y-50588152D02*
X87867980Y-50635771D01*
X87867980Y-50635771D02*
X87820361Y-50683390D01*
X87820361Y-50683390D02*
X87772742Y-50778628D01*
X87772742Y-50778628D02*
X87772742Y-51064342D01*
X87772742Y-51064342D02*
X87820361Y-51159580D01*
X87820361Y-51159580D02*
X87867980Y-51207200D01*
X87867980Y-51207200D02*
X87963218Y-51254819D01*
X87963218Y-51254819D02*
X88106075Y-51254819D01*
X87344170Y-51254819D02*
X87344170Y-50254819D01*
X86915599Y-51254819D02*
X86915599Y-50731009D01*
X86915599Y-50731009D02*
X86963218Y-50635771D01*
X86963218Y-50635771D02*
X87058456Y-50588152D01*
X87058456Y-50588152D02*
X87201313Y-50588152D01*
X87201313Y-50588152D02*
X87296551Y-50635771D01*
X87296551Y-50635771D02*
X87344170Y-50683390D01*
X86439408Y-50588152D02*
X86439408Y-51254819D01*
X86439408Y-50683390D02*
X86391789Y-50635771D01*
X86391789Y-50635771D02*
X86296551Y-50588152D01*
X86296551Y-50588152D02*
X86153694Y-50588152D01*
X86153694Y-50588152D02*
X86058456Y-50635771D01*
X86058456Y-50635771D02*
X86010837Y-50731009D01*
X86010837Y-50731009D02*
X86010837Y-51254819D01*
X84867979Y-50254819D02*
X84629884Y-51254819D01*
X84629884Y-51254819D02*
X84439408Y-50540533D01*
X84439408Y-50540533D02*
X84248932Y-51254819D01*
X84248932Y-51254819D02*
X84010837Y-50254819D01*
X83629884Y-51254819D02*
X83629884Y-50588152D01*
X83629884Y-50254819D02*
X83677503Y-50302438D01*
X83677503Y-50302438D02*
X83629884Y-50350057D01*
X83629884Y-50350057D02*
X83582265Y-50302438D01*
X83582265Y-50302438D02*
X83629884Y-50254819D01*
X83629884Y-50254819D02*
X83629884Y-50350057D01*
X83153694Y-50588152D02*
X83153694Y-51254819D01*
X83153694Y-50683390D02*
X83106075Y-50635771D01*
X83106075Y-50635771D02*
X83010837Y-50588152D01*
X83010837Y-50588152D02*
X82867980Y-50588152D01*
X82867980Y-50588152D02*
X82772742Y-50635771D01*
X82772742Y-50635771D02*
X82725123Y-50731009D01*
X82725123Y-50731009D02*
X82725123Y-51254819D01*
X81820361Y-51254819D02*
X81820361Y-50731009D01*
X81820361Y-50731009D02*
X81867980Y-50635771D01*
X81867980Y-50635771D02*
X81963218Y-50588152D01*
X81963218Y-50588152D02*
X82153694Y-50588152D01*
X82153694Y-50588152D02*
X82248932Y-50635771D01*
X81820361Y-51207200D02*
X81915599Y-51254819D01*
X81915599Y-51254819D02*
X82153694Y-51254819D01*
X82153694Y-51254819D02*
X82248932Y-51207200D01*
X82248932Y-51207200D02*
X82296551Y-51111961D01*
X82296551Y-51111961D02*
X82296551Y-51016723D01*
X82296551Y-51016723D02*
X82248932Y-50921485D01*
X82248932Y-50921485D02*
X82153694Y-50873866D01*
X82153694Y-50873866D02*
X81915599Y-50873866D01*
X81915599Y-50873866D02*
X81820361Y-50826247D01*
X81344170Y-50588152D02*
X81344170Y-51254819D01*
X81344170Y-50683390D02*
X81296551Y-50635771D01*
X81296551Y-50635771D02*
X81201313Y-50588152D01*
X81201313Y-50588152D02*
X81058456Y-50588152D01*
X81058456Y-50588152D02*
X80963218Y-50635771D01*
X80963218Y-50635771D02*
X80915599Y-50731009D01*
X80915599Y-50731009D02*
X80915599Y-51254819D01*
X80487027Y-51207200D02*
X80391789Y-51254819D01*
X80391789Y-51254819D02*
X80201313Y-51254819D01*
X80201313Y-51254819D02*
X80106075Y-51207200D01*
X80106075Y-51207200D02*
X80058456Y-51111961D01*
X80058456Y-51111961D02*
X80058456Y-51064342D01*
X80058456Y-51064342D02*
X80106075Y-50969104D01*
X80106075Y-50969104D02*
X80201313Y-50921485D01*
X80201313Y-50921485D02*
X80344170Y-50921485D01*
X80344170Y-50921485D02*
X80439408Y-50873866D01*
X80439408Y-50873866D02*
X80487027Y-50778628D01*
X80487027Y-50778628D02*
X80487027Y-50731009D01*
X80487027Y-50731009D02*
X80439408Y-50635771D01*
X80439408Y-50635771D02*
X80344170Y-50588152D01*
X80344170Y-50588152D02*
X80201313Y-50588152D01*
X80201313Y-50588152D02*
X80106075Y-50635771D01*
X117247819Y-47772666D02*
X117962104Y-47772666D01*
X117962104Y-47772666D02*
X118104961Y-47725047D01*
X118104961Y-47725047D02*
X118200200Y-47629809D01*
X118200200Y-47629809D02*
X118247819Y-47486952D01*
X118247819Y-47486952D02*
X118247819Y-47391714D01*
X117676390Y-48391714D02*
X117628771Y-48296476D01*
X117628771Y-48296476D02*
X117581152Y-48248857D01*
X117581152Y-48248857D02*
X117485914Y-48201238D01*
X117485914Y-48201238D02*
X117438295Y-48201238D01*
X117438295Y-48201238D02*
X117343057Y-48248857D01*
X117343057Y-48248857D02*
X117295438Y-48296476D01*
X117295438Y-48296476D02*
X117247819Y-48391714D01*
X117247819Y-48391714D02*
X117247819Y-48582190D01*
X117247819Y-48582190D02*
X117295438Y-48677428D01*
X117295438Y-48677428D02*
X117343057Y-48725047D01*
X117343057Y-48725047D02*
X117438295Y-48772666D01*
X117438295Y-48772666D02*
X117485914Y-48772666D01*
X117485914Y-48772666D02*
X117581152Y-48725047D01*
X117581152Y-48725047D02*
X117628771Y-48677428D01*
X117628771Y-48677428D02*
X117676390Y-48582190D01*
X117676390Y-48582190D02*
X117676390Y-48391714D01*
X117676390Y-48391714D02*
X117724009Y-48296476D01*
X117724009Y-48296476D02*
X117771628Y-48248857D01*
X117771628Y-48248857D02*
X117866866Y-48201238D01*
X117866866Y-48201238D02*
X118057342Y-48201238D01*
X118057342Y-48201238D02*
X118152580Y-48248857D01*
X118152580Y-48248857D02*
X118200200Y-48296476D01*
X118200200Y-48296476D02*
X118247819Y-48391714D01*
X118247819Y-48391714D02*
X118247819Y-48582190D01*
X118247819Y-48582190D02*
X118200200Y-48677428D01*
X118200200Y-48677428D02*
X118152580Y-48725047D01*
X118152580Y-48725047D02*
X118057342Y-48772666D01*
X118057342Y-48772666D02*
X117866866Y-48772666D01*
X117866866Y-48772666D02*
X117771628Y-48725047D01*
X117771628Y-48725047D02*
X117724009Y-48677428D01*
X117724009Y-48677428D02*
X117676390Y-48582190D01*
D11*
X118485000Y-47005000D02*
X118485000Y-58265000D01*
X118485000Y-59765000D02*
X118485000Y-59875000D01*
X118485000Y-59875000D02*
X120295000Y-59875000D01*
X119645000Y-47005000D02*
X118485000Y-47005000D01*
X122195000Y-59875000D02*
X128495000Y-59875000D01*
X122895000Y-47005000D02*
X128495000Y-47005000D01*
%LPC*%
D12*
X45720000Y-53340000D03*
D13*
X48260000Y-53340000D03*
X45720000Y-55880000D03*
X48260000Y-55880000D03*
X45720000Y-58420000D03*
X48260000Y-58420000D03*
X45720000Y-60960000D03*
X48260000Y-60960000D03*
X45720000Y-63500000D03*
X48260000Y-63500000D03*
X45720000Y-66040000D03*
X48260000Y-66040000D03*
X45720000Y-68580000D03*
X48260000Y-68580000D03*
X45720000Y-71120000D03*
X48260000Y-71120000D03*
X45720000Y-73660000D03*
X48260000Y-73660000D03*
X45720000Y-76200000D03*
X48260000Y-76200000D03*
X45720000Y-78740000D03*
X48260000Y-78740000D03*
X45720000Y-81280000D03*
X48260000Y-81280000D03*
X45720000Y-83820000D03*
X48260000Y-83820000D03*
X45720000Y-86360000D03*
X48260000Y-86360000D03*
X45720000Y-88900000D03*
X48260000Y-88900000D03*
X45720000Y-91440000D03*
X48260000Y-91440000D03*
X45720000Y-93980000D03*
X48260000Y-93980000D03*
X45720000Y-96520000D03*
X48260000Y-96520000D03*
X45720000Y-99060000D03*
X48260000Y-99060000D03*
X45720000Y-101600000D03*
X48260000Y-101600000D03*
D12*
X55880000Y-44450000D03*
D13*
X55880000Y-41910000D03*
X58420000Y-44450000D03*
X58420000Y-41910000D03*
X60960000Y-44450000D03*
X60960000Y-41910000D03*
X63500000Y-44450000D03*
X63500000Y-41910000D03*
X66040000Y-44450000D03*
X66040000Y-41910000D03*
X68580000Y-44450000D03*
X68580000Y-41910000D03*
X71120000Y-44450000D03*
X71120000Y-41910000D03*
X73660000Y-44450000D03*
X73660000Y-41910000D03*
X76200000Y-44450000D03*
X76200000Y-41910000D03*
X78740000Y-44450000D03*
X78740000Y-41910000D03*
X81280000Y-44450000D03*
X81280000Y-41910000D03*
X83820000Y-44450000D03*
X83820000Y-41910000D03*
X86360000Y-44450000D03*
X86360000Y-41910000D03*
X88900000Y-44450000D03*
X88900000Y-41910000D03*
X91440000Y-44450000D03*
X91440000Y-41910000D03*
X93980000Y-44450000D03*
X93980000Y-41910000D03*
X96520000Y-44450000D03*
X96520000Y-41910000D03*
X99060000Y-44450000D03*
X99060000Y-41910000D03*
X101600000Y-44450000D03*
X101600000Y-41910000D03*
X104140000Y-44450000D03*
X104140000Y-41910000D03*
X106680000Y-44450000D03*
X106680000Y-41910000D03*
X109220000Y-44450000D03*
X109220000Y-41910000D03*
X111760000Y-44450000D03*
X111760000Y-41910000D03*
X114300000Y-44450000D03*
X114300000Y-41910000D03*
X116840000Y-44450000D03*
X116840000Y-41910000D03*
X119380000Y-44450000D03*
X119380000Y-41910000D03*
X121920000Y-44450000D03*
X121920000Y-41910000D03*
X124460000Y-44450000D03*
X124460000Y-41910000D03*
X127000000Y-44450000D03*
X127000000Y-41910000D03*
X129540000Y-44450000D03*
X129540000Y-41910000D03*
D12*
X55880000Y-100330000D03*
D13*
X55880000Y-97790000D03*
X58420000Y-100330000D03*
X58420000Y-97790000D03*
X60960000Y-100330000D03*
X60960000Y-97790000D03*
X63500000Y-100330000D03*
X63500000Y-97790000D03*
X66040000Y-100330000D03*
X66040000Y-97790000D03*
X68580000Y-100330000D03*
X68580000Y-97790000D03*
X71120000Y-100330000D03*
X71120000Y-97790000D03*
X73660000Y-100330000D03*
X73660000Y-97790000D03*
X76200000Y-100330000D03*
X76200000Y-97790000D03*
X78740000Y-100330000D03*
X78740000Y-97790000D03*
X81280000Y-100330000D03*
X81280000Y-97790000D03*
X83820000Y-100330000D03*
X83820000Y-97790000D03*
X86360000Y-100330000D03*
X86360000Y-97790000D03*
X88900000Y-100330000D03*
X88900000Y-97790000D03*
X91440000Y-100330000D03*
X91440000Y-97790000D03*
X93980000Y-100330000D03*
X93980000Y-97790000D03*
X96520000Y-100330000D03*
X96520000Y-97790000D03*
X99060000Y-100330000D03*
X99060000Y-97790000D03*
X101600000Y-100330000D03*
X101600000Y-97790000D03*
X104140000Y-100330000D03*
X104140000Y-97790000D03*
X106680000Y-100330000D03*
X106680000Y-97790000D03*
X109220000Y-100330000D03*
X109220000Y-97790000D03*
X111760000Y-100330000D03*
X111760000Y-97790000D03*
X114300000Y-100330000D03*
X114300000Y-97790000D03*
X116840000Y-100330000D03*
X116840000Y-97790000D03*
X119380000Y-100330000D03*
X119380000Y-97790000D03*
X121920000Y-100330000D03*
X121920000Y-97790000D03*
X124460000Y-100330000D03*
X124460000Y-97790000D03*
X127000000Y-100330000D03*
X127000000Y-97790000D03*
X129540000Y-100330000D03*
X129540000Y-97790000D03*
D12*
X35560000Y-53340000D03*
D13*
X38100000Y-53340000D03*
X35560000Y-55880000D03*
X38100000Y-55880000D03*
X35560000Y-58420000D03*
X38100000Y-58420000D03*
X35560000Y-60960000D03*
X38100000Y-60960000D03*
X35560000Y-63500000D03*
X38100000Y-63500000D03*
X35560000Y-66040000D03*
X38100000Y-66040000D03*
X35560000Y-68580000D03*
X38100000Y-68580000D03*
X35560000Y-71120000D03*
X38100000Y-71120000D03*
X35560000Y-73660000D03*
X38100000Y-73660000D03*
X35560000Y-76200000D03*
X38100000Y-76200000D03*
X35560000Y-78740000D03*
X38100000Y-78740000D03*
X35560000Y-81280000D03*
X38100000Y-81280000D03*
X35560000Y-83820000D03*
X38100000Y-83820000D03*
X35560000Y-86360000D03*
X38100000Y-86360000D03*
X35560000Y-88900000D03*
X38100000Y-88900000D03*
X35560000Y-91440000D03*
X38100000Y-91440000D03*
X35560000Y-93980000D03*
X38100000Y-93980000D03*
X35560000Y-96520000D03*
X38100000Y-96520000D03*
X35560000Y-99060000D03*
X38100000Y-99060000D03*
X35560000Y-101600000D03*
X38100000Y-101600000D03*
D12*
X54610000Y-52578000D03*
D13*
X57150000Y-52578000D03*
D14*
X121861000Y-62092000D03*
D15*
X128361000Y-62092000D03*
X121861000Y-66592000D03*
X128361000Y-66592000D03*
D14*
X121861000Y-70474000D03*
D15*
X128361000Y-70474000D03*
X121861000Y-74974000D03*
X128361000Y-74974000D03*
D12*
X64770000Y-74930000D03*
D13*
X67310000Y-74930000D03*
X64770000Y-77470000D03*
X67310000Y-77470000D03*
X64770000Y-80010000D03*
X67310000Y-80010000D03*
X64770000Y-82550000D03*
X67310000Y-82550000D03*
X64770000Y-85090000D03*
X67310000Y-85090000D03*
X64770000Y-87630000D03*
X67310000Y-87630000D03*
X64770000Y-90170000D03*
X67310000Y-90170000D03*
X64770000Y-92710000D03*
X67310000Y-92710000D03*
D16*
X50388000Y-44340000D03*
X44608000Y-44340000D03*
D17*
X51818000Y-44870000D03*
D18*
X51818000Y-40690000D03*
D17*
X43178000Y-44870000D03*
D18*
X43178000Y-40690000D03*
D19*
X129620000Y-56615000D03*
X129620000Y-55515000D03*
X129620000Y-54415000D03*
X129620000Y-53315000D03*
X129620000Y-52215000D03*
X129620000Y-51115000D03*
X129620000Y-50015000D03*
X129620000Y-48915000D03*
D20*
X120395000Y-47790000D03*
D21*
X118820000Y-59015000D03*
D22*
X121895000Y-47465000D03*
D23*
X129495000Y-47565000D03*
D24*
X129495000Y-59215000D03*
D25*
X121245000Y-59415000D03*
%LPD*%
M02*
